HIERARCHY
ROOT Hips
{
	OFFSET 0.000000 0.000000 0.000000
	CHANNELS 6 Xposition Yposition Zposition Xrotation Yrotation Zrotation
	JOINT LeftUpLeg_virtual
	{
		OFFSET 0.000000 0.000000 0.000000
		CHANNELS 3 Xrotation Yrotation Zrotation
		JOINT LeftUpLeg
		{
			OFFSET 11.394100 -6.187798 -0.413800
			CHANNELS 3 Xrotation Yrotation Zrotation
			JOINT LeftLeg
			{
				OFFSET 0.430247 -32.302673 3.732800
				CHANNELS 3 Xrotation Yrotation Zrotation
				JOINT LeftFoot
				{
					OFFSET -0.430247 -48.264931 -6.423300
					CHANNELS 3 Xrotation Yrotation Zrotation
					JOINT LeftToeBase
					{
						OFFSET 4.230900 -16.068199 23.438400
						CHANNELS 3 Xrotation Yrotation Zrotation
						JOINT LeftToe_End
						{
							OFFSET 4.510700 0.695400 19.974600
							CHANNELS 3 Xrotation Yrotation Zrotation
							End Site
							{
								OFFSET 0 0 0
							}
						}
					}
				}
			}
		}
	}
	JOINT RightUpLeg_virtual
	{
		OFFSET 0.000000 0.000000 0.000000
		CHANNELS 3 Xrotation Yrotation Zrotation
		JOINT RightUpLeg
		{
			OFFSET -11.333700 -6.187798 -0.413800
			CHANNELS 3 Xrotation Yrotation Zrotation
			JOINT RightLeg
			{
				OFFSET -0.430392 -32.302628 3.733000
				CHANNELS 3 Xrotation Yrotation Zrotation
				JOINT RightFoot
				{
					OFFSET 0.430392 -48.264973 -6.423500
					CHANNELS 3 Xrotation Yrotation Zrotation
					JOINT RightToeBase
					{
						OFFSET -4.230900 -16.068199 23.438400
						CHANNELS 3 Xrotation Yrotation Zrotation
						JOINT RightToe_End
						{
							OFFSET -4.510700 0.695400 19.974600
							CHANNELS 3 Xrotation Yrotation Zrotation
							End Site
							{
								OFFSET 0 0 0
							}
						}
					}
				}
			}
		}
	}
	JOINT Spine_virtual
	{
		OFFSET 0.000000 0.000000 0.000000
		CHANNELS 3 Xrotation Yrotation Zrotation
		JOINT Spine
		{
			OFFSET -0.002400 12.777504 0.315300
			CHANNELS 3 Xrotation Yrotation Zrotation
			JOINT Spine1
			{
				OFFSET -0.002067 5.816869 0.032633
				CHANNELS 3 Xrotation Yrotation Zrotation
				JOINT Spine1_split
				{
					OFFSET -0.002067 5.816869 0.032633
					CHANNELS 3 Xrotation Yrotation Zrotation
					JOINT Spine2
					{
						OFFSET -0.002067 5.816869 0.032633
						CHANNELS 3 Xrotation Yrotation Zrotation
						JOINT Neck_virtual
						{
							OFFSET 0.000000 0.000000 0.000000
							CHANNELS 3 Xrotation Yrotation Zrotation
							JOINT Neck
							{
								OFFSET -0.003700 21.199493 -0.826900
								CHANNELS 3 Xrotation Yrotation Zrotation
								JOINT Head
								{
									OFFSET 0.000000 20.442200 4.834800
									CHANNELS 3 Xrotation Yrotation Zrotation
									JOINT HeadTop_End
									{
										OFFSET 0.000000 34.668396 4.968400
										CHANNELS 3 Xrotation Yrotation Zrotation
										End Site
										{
											OFFSET 0 0 0
										}
									}
								}
							}
						}
						JOINT LeftShoulder_virtual
						{
							OFFSET 0.000000 0.000000 0.000000
							CHANNELS 3 Xrotation Yrotation Zrotation
							JOINT LeftShoulder
							{
								OFFSET 3.288150 8.794197 -1.372250
								CHANNELS 3 Xrotation Yrotation Zrotation
								JOINT LeftShoulder_split
								{
									OFFSET 3.288150 8.794197 -1.372250
									CHANNELS 3 Xrotation Yrotation Zrotation
									JOINT LeftArm
									{
										OFFSET 11.953299 -2.279007 -0.146200
										CHANNELS 3 Xrotation Yrotation Zrotation
										JOINT LeftForeArm
										{
											OFFSET 18.448900 0.000000 0.000000
											CHANNELS 3 Xrotation Yrotation Zrotation
											JOINT LeftHand
											{
												OFFSET 29.527798 0.000000 0.000000
												CHANNELS 3 Xrotation Yrotation Zrotation
												End Site
												{
													OFFSET 0 0 0
												}
											}
										}
									}
								}
							}
						}
						JOINT RightShoulder_virtual
						{
							OFFSET 0.000000 0.000000 0.000000
							CHANNELS 3 Xrotation Yrotation Zrotation
							JOINT RightShoulder
							{
								OFFSET -3.249400 8.794197 -1.372250
								CHANNELS 3 Xrotation Yrotation Zrotation
								JOINT RightShoulder_split
								{
									OFFSET -3.249400 8.794197 -1.372250
									CHANNELS 3 Xrotation Yrotation Zrotation
									JOINT RightArm
									{
										OFFSET -11.953299 -2.279007 -0.146200
										CHANNELS 3 Xrotation Yrotation Zrotation
										JOINT RightForeArm
										{
											OFFSET -18.448900 0.000000 0.000000
											CHANNELS 3 Xrotation Yrotation Zrotation
											JOINT RightHand
											{
												OFFSET -29.527802 0.000000 0.000000
												CHANNELS 3 Xrotation Yrotation Zrotation
												End Site
												{
													OFFSET 0 0 0
												}
											}
										}
									}
								}
							}
						}
					}
				}
			}
		}
	}
}
MOTION
Frames: 11
Frame Time: 0.03333333
18.238022 88.196030 -19.860996 0.000000 0.000000 0.000000 155.481101 -41.790960 163.254239 -6.331405 30.818135 13.458875 18.260915 18.791397 1.340442 -12.742543 14.145312 -27.886653 -0.397884 -0.321017 0.288005 0.000000 0.000000 0.000000 155.939885 -39.054291 163.094467 -75.978375 13.368077 9.063828 30.755440 -3.859221 -3.078829 22.907210 0.485467 8.833283 3.346191 2.057548 -0.024964 0.000000 0.000000 0.000000 157.471145 -41.036699 163.635486 35.379468 1.449397 10.435189 -9.638455 -2.528521 2.313641 0.748211 1.614446 0.582871 0.000000 0.000000 0.000000 -9.551108 -2.080209 2.151176 -10.178064 -0.511780 -8.700064 -19.749279 -12.612010 7.540166 0.000000 0.000000 0.000000 -10.057282 -1.861608 1.935546 7.012697 -14.869180 25.736865 3.829042 1.450913 1.950364 -69.787219 -2.162208 -45.393577 -1.740381 -60.411876 4.537168 0.000000 0.000000 0.000000 -9.554707 -1.523250 2.335806 5.812497 3.982632 -2.453626 -2.555249 1.057191 2.293638 -0.524373 5.589631 67.971652 14.193381 25.819940 -3.864971 0.000000 0.000000 0.000000 
18.133736 88.508194 -19.964954 0.000000 0.000000 0.000000 155.745129 -42.041296 163.545109 -5.402418 30.645973 12.846802 16.860062 19.112782 1.557709 -11.738588 13.922338 -27.932028 -0.355193 -0.303360 0.096792 0.000000 0.000000 0.000000 156.169407 -39.371485 163.338988 -75.400453 13.122277 8.785390 30.482349 -3.870210 -3.141271 22.635732 0.652869 8.540560 3.307790 2.043001 -0.015123 0.000000 0.000000 0.000000 157.724531 -41.287483 163.908817 35.152716 1.462825 10.422630 -9.578767 -2.540878 2.429912 0.702039 1.691870 0.575417 0.000000 0.000000 0.000000 -9.416834 -2.105941 2.241807 -10.982521 -3.761196 -7.509212 -17.543464 -16.286127 8.377608 0.000000 0.000000 0.000000 -9.946840 -1.900193 2.045266 6.688966 -14.271691 24.902731 3.830023 1.498863 2.282316 -69.632911 -1.559352 -45.625408 -1.631759 -59.879449 4.613505 0.000000 0.000000 0.000000 -9.381091 -1.547586 2.408038 5.688126 3.415282 -2.688250 -2.788289 1.134375 2.249204 -0.365044 6.042333 68.302684 13.924179 25.871995 -3.618770 0.000000 0.000000 0.000000 
18.036488 88.792221 -20.069614 0.000000 0.000000 0.000000 155.998488 -42.263011 163.847236 -4.485869 30.474692 12.184281 15.469593 19.424279 1.793590 -10.728690 13.721238 -27.999840 -0.321862 -0.283531 -0.077840 0.000000 0.000000 0.000000 156.378930 -39.662902 163.583905 -74.862889 12.849301 8.492905 30.244962 -3.863476 -3.205514 22.348247 0.799445 8.274735 3.266970 2.026706 0.004630 0.000000 0.000000 0.000000 157.949245 -41.499386 164.188240 34.951792 1.512956 10.410977 -9.534905 -2.528491 2.502866 0.720495 1.733489 0.554020 0.000000 0.000000 0.000000 -9.283177 -2.112523 2.297379 -11.671988 -6.610079 -6.698956 -15.666173 -19.092498 8.879132 0.000000 0.000000 0.000000 -9.855195 -1.914561 2.119742 6.413135 -13.829880 24.018973 3.860356 1.659720 2.641899 -69.519701 -1.028335 -45.837956 -1.757443 -59.286384 4.430807 0.000000 0.000000 0.000000 -9.227622 -1.558023 2.433253 5.571641 2.871333 -2.857253 -2.982245 1.150042 2.256554 -0.290228 6.481718 68.649528 13.679330 26.013619 -3.382730 0.000000 0.000000 0.000000 
17.944063 89.047646 -20.148655 0.000000 0.000000 0.000000 156.237845 -42.460274 164.164485 -3.596332 30.299791 11.493915 14.129460 19.728561 2.033910 -9.737705 13.546951 -28.066955 -0.295502 -0.261779 -0.238279 0.000000 0.000000 0.000000 156.565599 -39.928907 163.834559 -74.375760 12.529877 8.163600 30.090112 -3.837102 -3.263918 22.035032 0.906016 8.036191 3.258688 2.006152 0.040974 0.000000 0.000000 0.000000 158.144520 -41.683982 164.471666 34.762408 1.589289 10.406291 -9.497410 -2.496450 2.529337 0.765995 1.761835 0.556383 0.000000 0.000000 0.000000 -9.157089 -2.104632 2.314815 -12.266870 -8.961963 -6.284696 -14.160756 -20.936391 9.009575 0.000000 0.000000 0.000000 -9.783381 -1.908054 2.159121 6.177777 -13.479525 23.173128 3.851287 1.839907 2.945199 -69.435157 -0.702257 -46.007512 -2.077324 -58.819854 4.031030 0.000000 0.000000 0.000000 -9.099780 -1.559882 2.411574 5.460825 2.376921 -2.974357 -3.089778 1.165144 2.293636 -0.303354 6.889218 69.024608 13.490872 26.263413 -3.178773 0.000000 0.000000 0.000000 
17.856588 89.272263 -20.184376 0.000000 0.000000 0.000000 156.454321 -42.664124 164.493194 -2.750212 30.118563 10.798490 12.879341 20.025348 2.265839 -8.802843 13.399121 -28.096639 -0.286077 -0.238223 -0.380416 0.000000 0.000000 0.000000 156.731190 -40.174671 164.096620 -73.949201 12.162735 7.784198 30.064065 -3.783218 -3.314774 21.689628 0.962188 7.825188 3.286335 1.981398 0.098302 0.000000 0.000000 0.000000 158.309633 -41.857670 164.752154 34.566242 1.671313 10.417019 -9.459233 -2.454162 2.518842 0.819893 1.794366 0.565668 0.000000 0.000000 0.000000 -9.050421 -2.085217 2.301629 -12.781868 -10.775869 -6.223575 -13.014903 -21.936790 8.844604 0.000000 0.000000 0.000000 -9.726502 -1.884980 2.174534 5.982949 -13.176253 22.444036 3.750441 1.981182 3.121845 -69.341788 -0.623866 -46.103763 -2.569750 -58.544741 3.452933 0.000000 0.000000 0.000000 -9.000133 -1.559130 2.357928 5.358763 1.934125 -3.053315 -3.130879 1.186905 2.323752 -0.371820 7.268806 69.440648 13.356776 26.568654 -3.008075 0.000000 0.000000 0.000000 
17.768959 89.470795 -20.179058 0.000000 0.000000 0.000000 156.647875 -42.902255 164.833993 -1.967121 29.924476 10.123228 11.748903 20.302941 2.484623 -7.945553 13.275841 -28.070684 -0.288531 -0.213261 -0.509987 0.000000 0.000000 0.000000 156.878011 -40.429683 164.372423 -73.575508 11.759998 7.354452 30.186499 -3.701417 -3.358605 21.306302 0.965419 7.639421 3.316759 1.951878 0.177415 0.000000 0.000000 0.000000 158.448887 -42.051757 165.024515 34.362139 1.737937 10.440999 -9.420697 -2.414517 2.487751 0.792302 1.853906 0.584568 0.000000 0.000000 0.000000 -8.967772 -2.066531 2.274785 -13.232062 -12.112834 -6.417828 -12.144351 -22.253865 8.520291 0.000000 0.000000 0.000000 -9.684758 -1.854191 2.180904 5.823064 -12.870947 21.864088 3.596087 2.072794 3.119564 -69.185390 -0.748747 -46.117444 -3.212648 -58.376076 2.726960 0.000000 0.000000 0.000000 -8.920516 -1.562825 2.292690 5.269088 1.554733 -3.112245 -3.146319 1.187141 2.326236 -0.447821 7.616026 69.870984 13.253518 26.833129 -2.858296 0.000000 0.000000 0.000000 
17.694328 89.649376 -20.145313 0.000000 0.000000 0.000000 156.830583 -43.191531 165.197359 -1.260271 29.698970 9.499358 10.764004 20.524597 2.683879 -7.171414 13.156208 -27.999937 -0.314739 -0.185550 -0.622259 0.000000 0.000000 0.000000 157.015462 -40.736850 164.678812 -73.237619 11.344233 6.881969 30.453440 -3.593731 -3.398073 20.867526 0.916874 7.470066 3.328898 1.917161 0.276690 0.000000 0.000000 0.000000 158.568169 -42.295742 165.287969 34.161297 1.770909 10.464162 -9.375879 -2.382627 2.450479 0.729810 1.891753 0.600833 0.000000 0.000000 0.000000 -8.924595 -2.049603 2.246963 -13.627918 -13.062511 -6.746350 -11.455627 -22.135489 8.193804 0.000000 0.000000 0.000000 -9.654032 -1.826863 2.180859 5.695594 -12.542048 21.455236 3.406650 2.107311 2.984841 -68.954325 -1.030062 -46.061057 -3.946009 -58.124083 1.924859 0.000000 0.000000 0.000000 -8.848858 -1.570925 2.231794 5.200713 1.252064 -3.156423 -3.207757 1.096674 2.247838 -0.481899 7.936233 70.277667 13.154839 26.989836 -2.714855 0.000000 0.000000 0.000000 
17.634375 89.815292 -20.098202 0.000000 0.000000 0.000000 157.016200 -43.552384 165.582691 -0.662127 29.429038 8.970267 9.952481 20.654851 2.855609 -6.475440 13.015376 -27.900869 -0.351777 -0.155206 -0.722217 0.000000 0.000000 0.000000 157.152886 -41.134893 165.010335 -72.914257 10.928892 6.380894 30.840152 -3.469834 -3.436084 20.345122 0.822651 7.299310 3.322792 1.878805 0.391265 0.000000 0.000000 0.000000 158.680908 -42.619192 165.549497 33.980738 1.762784 10.469258 -9.326783 -2.358949 2.414024 0.657931 1.911633 0.567739 0.000000 0.000000 0.000000 -8.915952 -2.036270 2.228087 -13.979003 -13.754454 -7.118713 -10.882350 -21.825390 7.966169 0.000000 0.000000 0.000000 -9.632411 -1.798890 2.181336 5.599851 -12.212061 21.179804 3.240983 2.093897 2.817352 -68.667805 -1.377666 -45.992585 -4.682663 -57.693215 1.132158 0.000000 0.000000 0.000000 -8.777739 -1.577781 2.186665 5.162844 1.039862 -3.179194 -3.340417 0.938961 2.120747 -0.393901 8.233166 70.639251 13.055083 27.040528 -2.581855 0.000000 0.000000 0.000000 
17.600525 89.971199 -20.045162 0.000000 0.000000 0.000000 157.219658 -43.998060 165.990385 -0.191586 29.103084 8.572834 9.350026 20.667179 2.988545 -5.880259 12.834294 -27.779884 -0.392819 -0.122517 -0.809937 0.000000 0.000000 0.000000 157.302617 -41.662532 165.371256 -72.593422 10.524975 5.862600 31.337362 -3.342389 -3.469972 19.732396 0.695425 7.125166 3.272926 1.838669 0.507965 0.000000 0.000000 0.000000 158.808619 -43.048066 165.828278 33.835951 1.718862 10.440748 -9.274838 -2.334696 2.379893 0.626864 1.928910 0.525304 0.000000 0.000000 0.000000 -8.934343 -2.019633 2.214851 -14.288539 -14.315194 -7.473340 -10.350654 -21.523782 7.873436 0.000000 0.000000 0.000000 -9.620852 -1.767736 2.173438 5.514346 -11.874984 20.960520 3.126428 1.976198 2.691153 -68.384721 -1.759358 -45.976404 -5.307788 -57.204197 0.435039 0.000000 0.000000 0.000000 -8.704835 -1.569158 2.154473 5.153522 0.920023 -3.181289 -3.489728 0.772748 1.942890 -0.153087 8.526885 70.933932 12.960809 27.006602 -2.479781 0.000000 0.000000 0.000000 
17.596138 90.107376 -19.987072 0.000000 0.000000 0.000000 157.451078 -44.540982 166.416521 0.136767 28.723298 8.332541 8.976545 20.552738 3.074403 -5.435319 12.603171 -27.621657 -0.435619 -0.086909 -0.883912 0.000000 0.000000 0.000000 157.477825 -42.318684 165.762708 -72.272260 10.145245 5.333807 31.943555 -3.219835 -3.496542 19.034965 0.548608 6.956220 3.182257 1.799611 0.611167 0.000000 0.000000 0.000000 158.960058 -43.605622 166.138232 33.729813 1.653600 10.367847 -9.227434 -2.297663 2.339905 0.653712 1.952435 0.481449 0.000000 0.000000 0.000000 -8.967175 -1.990726 2.197492 -14.544393 -14.828114 -7.790394 -9.829242 -21.390887 7.892686 0.000000 0.000000 0.000000 -9.620258 -1.724064 2.153144 5.427206 -11.542863 20.731636 3.050107 1.728221 2.654063 -68.171148 -2.183689 -46.053756 -5.754501 -56.858238 -0.120473 0.000000 0.000000 0.000000 -8.634976 -1.535835 2.123534 5.163095 0.885042 -3.168416 -3.640481 0.648601 1.747095 0.232120 8.821544 71.166780 12.897770 26.935274 -2.442571 0.000000 0.000000 0.000000 
17.616352 90.221992 -19.932064 0.000000 0.000000 0.000000 157.713603 -45.189361 166.860961 0.304433 28.316303 8.261967 8.836874 20.323400 3.108703 -5.181824 12.311575 -27.405989 -0.486484 -0.051140 -0.941281 0.000000 0.000000 0.000000 157.677512 -43.107072 166.169091 -71.955257 9.797710 4.797392 32.660834 -3.115397 -3.506908 18.244328 0.394992 6.795015 3.102716 1.766532 0.689848 0.000000 0.000000 0.000000 159.144350 -44.304487 166.486394 33.650109 1.581923 10.249869 -9.203669 -2.244366 2.286149 0.693311 2.029692 0.452790 0.000000 0.000000 0.000000 -9.007043 -1.951417 2.167664 -14.750956 -15.344775 -8.088903 -9.294740 -21.481879 7.942427 0.000000 0.000000 0.000000 -9.630241 -1.665787 2.118133 5.325199 -11.222229 20.421033 3.044464 1.352066 2.687755 -68.000305 -2.631646 -46.188676 -5.991634 -56.802729 -0.524464 0.000000 0.000000 0.000000 -8.581280 -1.482164 2.081425 5.173009 0.888954 -3.172185 -3.749589 0.618536 1.566695 0.682570 9.107583 71.353429 12.899446 26.874423 -2.516528 0.000000 0.000000 0.000000 
